<svg xmlns="http://www.w3.org/2000/svg" width="512" height="512" viewBox="0 0 512 512" version="1.1">
	<path d="M 325.500 21.638 C 316.109 22.700, 307.557 24.586, 300.331 27.188 L 292.162 30.130 285.831 28.187 C 274.328 24.655, 265.017 23.515, 248 23.553 C 223.250 23.608, 208.951 26.979, 187 37.935 C 134.959 63.908, 101.274 105.328, 90.170 157 C 86.729 173.011, 85.779 185.875, 86.513 206.500 C 87.506 234.362, 84.815 244.295, 72.049 259.890 C 67.265 265.733, 66 267.996, 66 270.705 C 66 278.547, 69.514 280.212, 83.082 278.798 C 93.999 277.660, 106.794 278.374, 115.379 280.598 C 120.622 281.957, 150.760 293.111, 157.563 296.211 C 159.701 297.185, 160 297.974, 160 302.640 C 160 307.894, 159.948 307.986, 155.750 310.111 C 147.020 314.532, 136.889 322.425, 127.418 332.186 C 117.891 342.004, 117.499 342.280, 111.242 343.589 C 97.770 346.408, 87.414 353.514, 82.548 363.279 C 75.437 377.550, 83.833 391.671, 102.230 396.380 L 107.500 397.729 107.535 405.114 C 107.631 425.731, 123.265 434.544, 142.735 424.959 L 148.988 421.880 154.595 426.448 C 161.351 431.951, 170.053 436.891, 179.500 440.585 C 183.350 442.091, 186.699 443.486, 186.941 443.686 C 187.184 443.886, 184.972 446.491, 182.025 449.475 C 174.567 457.026, 174.645 459.482, 182.573 466.862 C 193.688 477.207, 222.002 493.910, 234.667 497.592 C 239.434 498.977, 240.256 498.972, 243.277 497.539 C 246.552 495.985, 259.580 482.034, 264.440 474.876 C 265.793 472.883, 267.548 471.004, 268.338 470.700 C 269.129 470.397, 274.439 469.836, 280.139 469.455 L 290.501 468.760 310.562 475.380 C 321.596 479.021, 331.603 482, 332.800 482 C 333.997 482, 338.694 480.488, 343.238 478.640 C 347.782 476.792, 355.858 473.804, 361.185 472 C 375.670 467.092, 383.427 463.018, 383.839 460.101 C 384.333 456.604, 382.069 453.076, 377.997 450.998 C 376.034 449.997, 368.819 447.972, 361.964 446.497 C 345.587 442.975, 341.564 441.665, 341.189 439.730 C 341.018 438.848, 341.918 437.500, 343.189 436.734 C 344.460 435.969, 349.256 433.128, 353.846 430.421 C 364.249 424.287, 375.813 413.647, 382.994 403.603 L 388.489 395.917 393.605 396.556 C 399.806 397.331, 403.430 395.736, 408.098 390.175 L 411.319 386.338 416.828 389.655 C 426.213 395.307, 432.661 395.273, 438.392 389.542 C 443.167 384.767, 444.672 378.533, 443.036 370.304 L 441.749 363.831 445.404 360.819 C 450.683 356.468, 453.322 350.738, 453.382 343.500 C 453.465 333.421, 448.332 325.873, 438.259 321.261 C 430.312 317.623, 423.678 317.308, 412.373 320.031 L 402.770 322.344 397.635 316.840 C 389.999 308.655, 372.939 298, 367.471 298 C 364.631 298, 366.065 296.464, 372.605 292.500 C 376.235 290.300, 381.409 286.102, 384.102 283.170 C 388.375 278.519, 390.275 277.356, 399.018 274.041 C 404.528 271.951, 410.832 269.054, 413.026 267.602 C 417.681 264.521, 422.593 258.131, 423.508 253.965 C 424.030 251.586, 425.251 250.551, 430.101 248.374 C 437.936 244.858, 442 240.261, 442 234.916 C 442 228.677, 439.739 225.520, 432.059 221.034 C 420.352 214.197, 418.554 209.921, 419.545 191.281 C 420.330 176.516, 418.773 165.086, 414.061 151.024 L 411.195 142.469 413.819 134.985 C 416.144 128.355, 416.446 125.958, 416.472 114 C 416.495 102.932, 416.083 98.973, 414.184 92.022 C 404.512 56.616, 380.978 31.970, 349.337 24.112 C 341.315 22.120, 330.847 21.034, 325.500 21.638 M 313 37.425 C 292.358 42.005, 270.796 53.550, 252.213 69.974 C 247.530 74.113, 242.529 78.520, 241.099 79.766 C 239.644 81.035, 243.126 79.622, 249.011 76.556 C 265.217 68.113, 272.579 65.998, 292.792 63.977 C 331.638 60.093, 367.473 78.533, 395.174 116.660 L 401.440 125.285 402.675 122.392 C 404.373 118.415, 404.299 107.550, 402.515 99.073 C 399.281 83.695, 391.138 68.072, 380.667 57.155 C 372.460 48.597, 358.801 40.817, 346.298 37.577 C 339.048 35.699, 321.151 35.617, 313 37.425 M 151.766 74.502 C 125.549 95.084, 108.125 124.779, 99.836 163 C 97.771 172.526, 97.551 176.237, 97.474 203 C 97.396 230.267, 97.222 233.092, 95.178 240.323 C 92.424 250.064, 90.172 254.525, 84.977 260.527 C 82.736 263.116, 81.144 265.477, 81.439 265.772 C 81.734 266.068, 89.069 266.390, 97.738 266.487 C 117.354 266.709, 118.159 266.941, 163.698 285.462 C 198.249 299.514, 230.791 304.800, 276.224 303.739 C 324.717 302.607, 354.841 293.401, 377 272.941 L 382.500 267.863 377.947 268.286 C 373.093 268.738, 363.802 272.606, 344.591 282.174 L 332.682 288.105 325.885 287.050 C 321.170 286.319, 317.007 286.312, 312.294 287.029 C 282.114 291.618, 274.894 292.266, 253 292.350 C 229.237 292.441, 219.708 291.360, 204.500 286.848 C 174.934 278.076, 153.640 254.217, 146.705 222.090 C 145.074 214.537, 144.631 208.888, 144.617 195.500 C 144.598 176.180, 146.236 165.492, 151.092 153.269 C 152.735 149.132, 153.910 145.576, 153.702 145.368 C 153.494 145.160, 152.094 147.249, 150.591 150.010 C 149.088 152.771, 147.477 154.795, 147.011 154.506 C 146.544 154.218, 145.160 149.824, 143.934 144.741 C 138.741 123.202, 142.457 96.933, 153.418 77.699 C 155.831 73.464, 157.737 70, 157.653 70.001 C 157.569 70.001, 154.920 72.027, 151.766 74.502 M 231.500 101.445 C 224.350 103.299, 216.025 105.989, 213 107.423 C 209.975 108.857, 208.400 109.743, 209.500 109.391 C 224.216 104.685, 231.902 104.027, 241.321 106.670 C 248.416 108.661, 252.983 112.771, 255.540 119.467 C 257.825 125.449, 256.715 126.647, 251.306 124.034 C 232.483 114.939, 204.084 121.760, 193.898 137.823 C 191.193 142.088, 191.077 142.153, 190.474 139.751 C 189.680 136.588, 191.423 127.042, 193.573 122.775 C 194.481 120.974, 196.636 117.982, 198.362 116.126 L 201.500 112.752 197 115.528 C 183.415 123.907, 175.028 133.025, 167.941 147.119 C 159.556 163.793, 156.455 179.436, 157.269 200.950 C 157.875 216.953, 160.146 226.779, 165.948 238.500 C 173.097 252.942, 182.601 262.274, 197.500 269.481 C 215.342 278.112, 235.250 281.063, 262.484 279.114 C 271.980 278.434, 280.714 277.626, 281.892 277.318 C 284.275 276.695, 277.326 272.223, 244.320 253.144 C 234.726 247.598, 232.669 244.913, 233.259 238.703 C 233.595 235.176, 234.481 233.099, 236.608 230.855 C 239.393 227.916, 239.703 227.833, 245 228.617 C 248.025 229.065, 255.450 229.412, 261.500 229.388 C 271.236 229.350, 273.420 228.999, 280.500 226.332 C 284.900 224.675, 295.700 219.182, 304.500 214.126 C 320.001 205.219, 327.590 201.986, 332.932 202.013 C 334.344 202.021, 339.325 203.408, 344 205.097 C 354.310 208.821, 368.410 213.426, 372.500 214.405 C 375.091 215.025, 374.861 214.714, 370.812 212.123 C 368.234 210.473, 362.826 206.508, 358.795 203.311 C 354.763 200.115, 347.648 195.704, 342.982 193.508 C 328.622 186.750, 319.622 188.119, 303.271 199.549 C 299.112 202.457, 296.377 203.777, 295.770 203.170 C 293.513 200.913, 301.604 193.021, 312.388 186.962 C 317.275 184.216, 319.571 183.584, 325.888 183.248 C 333.258 182.855, 333.794 182.987, 342.750 187.388 C 347.837 189.888, 351.995 191.611, 351.989 191.217 C 351.983 190.823, 351.308 188.291, 350.489 185.591 C 348.400 178.705, 348.658 173.588, 351.501 165.531 C 358.961 144.387, 373.808 139.560, 385.155 154.589 C 390.433 161.579, 393.088 168.844, 393.731 178.050 C 394.637 191.020, 390.346 201.922, 382.336 207.002 L 377.986 209.761 380.743 211.571 C 382.601 212.791, 386.360 213.589, 392.269 214.017 C 398.969 214.502, 401.720 215.156, 403.928 216.789 L 406.818 218.925 405.836 215.370 C 405.092 212.675, 405.382 208.751, 407.034 199.157 C 409.391 185.466, 409.246 177.729, 406.422 166.543 C 404.607 159.353, 400.143 147.206, 399.071 146.544 C 398.654 146.286, 396.780 146.467, 394.906 146.946 C 393.033 147.425, 389.860 148.095, 387.855 148.434 L 384.210 149.051 382.113 142.146 C 380.107 135.540, 374.080 125.952, 369.252 121.685 C 367.459 120.100, 366.647 120.015, 362.849 121.015 C 360.457 121.645, 357.012 123.025, 355.193 124.081 C 353.374 125.136, 351.510 126, 351.050 126 C 349.233 126, 349.023 122.434, 350.532 117.241 C 351.405 114.240, 351.853 111.520, 351.530 111.196 C 351.206 110.872, 344.542 110.253, 336.720 109.819 C 309.189 108.291, 274.920 104.118, 255.547 99.934 C 250.623 98.870, 246.123 98.017, 245.547 98.037 C 244.971 98.057, 238.650 99.591, 231.500 101.445 M 223.383 146.949 C 217.448 148.366, 211.176 152.105, 206.690 156.900 C 191.832 172.785, 191.500 197.653, 205.937 213.316 C 211.760 219.633, 218.584 222.454, 228 222.436 C 234.598 222.423, 236.260 222.014, 241.821 219.033 C 253.246 212.910, 259.685 202.679, 260.736 188.977 C 261.385 180.521, 259.697 172.662, 255.379 164.030 C 248.502 150.285, 236.422 143.836, 223.383 146.949 M 369.378 165.398 C 362.694 168.391, 360.781 176.103, 365.750 180.025 C 368.030 181.825, 369.475 182.126, 374.213 181.787 C 381.156 181.290, 384 179.132, 384 174.361 C 384 170.184, 379.699 165.194, 375.500 164.498 C 373.850 164.224, 371.095 164.629, 369.378 165.398 M 216.389 174.342 C 214.153 176.265, 213.667 177.513, 213.667 181.329 C 213.667 189.182, 218.860 192.192, 226.020 188.490 C 231.768 185.517, 232.677 179.523, 228.077 174.923 C 224.443 171.289, 220.184 171.077, 216.389 174.342 M 390 228.221 C 383.236 231.011, 381.190 231.362, 369.155 231.791 C 360.024 232.117, 350.947 231.711, 340.408 230.505 C 319.237 228.084, 300.618 228.742, 289.500 232.307 C 275.177 236.899, 268.664 238.287, 258.580 238.899 C 251.881 239.305, 248.523 239.913, 248.239 240.773 C 247.691 242.431, 260.086 248.166, 271.100 251.351 C 285.706 255.575, 298.162 257.210, 316 257.245 C 340.396 257.292, 357.516 253.718, 379.165 244.058 C 398.395 235.477, 405.152 230.298, 402.028 226.534 C 400.277 224.424, 398.648 224.653, 390 228.221 M 334.963 309.363 C 333.974 310.334, 308.916 314.892, 298 316.085 C 285.497 317.452, 246.009 317.779, 236.750 316.593 L 231 315.856 231 329.318 C 231 345.736, 229.185 356.065, 223.932 369.532 C 218.934 382.346, 211.628 393.486, 201.888 403.143 C 191.762 413.184, 183.382 417.501, 174.025 417.498 C 170.436 417.496, 166.150 417.123, 164.500 416.669 L 161.500 415.842 164 417.870 C 168.547 421.559, 183.353 428.766, 192.916 431.944 C 206.613 436.496, 229.370 440.781, 246 441.939 C 294.185 445.295, 342.732 430.108, 367.395 403.964 C 379.389 391.250, 384.805 375.413, 380.226 366.447 C 376.759 359.659, 354.532 326.905, 347.350 318 C 342.468 311.948, 339.764 309.415, 337.959 309.204 C 336.566 309.041, 335.217 309.113, 334.963 309.363 M 415.734 332.417 C 413.112 333.122, 410.737 333.929, 410.456 334.210 C 410.175 334.492, 411.532 338.034, 413.472 342.083 C 417.687 350.876, 418.028 356.566, 414.899 365.832 C 412.440 373.115, 412.669 373.622, 420.451 378.085 C 429.102 383.048, 432.750 381.492, 431.630 373.317 C 431.279 370.757, 429.869 366.209, 428.496 363.210 C 427.123 360.212, 426 357.614, 426 357.438 C 426 357.262, 428.766 355.643, 432.147 353.841 C 442.184 348.491, 444.518 342.318, 438.703 336.503 C 433.433 331.233, 425.428 329.809, 415.734 332.417 M 109.870 357.503 C 103.215 359.641, 95.938 364.915, 93.758 369.180 C 92.060 372.500, 92.020 373.137, 93.340 375.691 C 96.018 380.870, 109.063 385.948, 119.781 385.985 C 125.337 386.004, 125.885 387.533, 123.137 395.356 C 120.276 403.505, 120.270 411.270, 123.125 414.125 C 129.579 420.579, 151.139 408.854, 157.486 395.438 C 162.394 385.063, 160.323 376.081, 150.909 366.911 C 143.218 359.420, 136.522 356.741, 124.500 356.345 C 117.582 356.116, 113.073 356.473, 109.870 357.503 M 323.500 444.256 C 320.750 445.395, 313.325 447.771, 307 449.538 C 292.445 453.603, 291.985 454.722, 303.198 458.771 C 327.418 467.515, 333.282 468.459, 341 464.855 C 343.475 463.699, 349.325 461.742, 354 460.505 C 358.675 459.268, 361.825 458.006, 361 457.700 C 360.175 457.395, 354.775 456.188, 349 455.019 C 333.076 451.794, 332.300 451.458, 330.938 447.192 C 330.289 445.161, 329.475 443.204, 329.129 442.843 C 328.783 442.481, 326.250 443.117, 323.500 444.256 M 197.140 452.124 C 195.413 454.472, 194.006 456.868, 194.012 457.447 C 194.045 460.262, 222.062 477.936, 233.198 482.167 L 237.958 483.976 241.467 480.895 C 243.397 479.201, 247.269 474.932, 250.072 471.410 L 255.168 465.006 253.435 460.470 C 252.483 457.976, 251.379 455.734, 250.983 455.490 C 250.587 455.245, 244.242 454.580, 236.882 454.013 C 225.387 453.126, 212.657 451.074, 202.890 448.533 C 200.635 447.946, 199.854 448.433, 197.140 452.124 M 273 453.688 C 262.907 454.702, 262.652 457, 272.632 457 C 278.176 457, 279.098 456.752, 278.823 455.333 C 278.449 453.403, 277.766 453.210, 273 453.688" stroke="none" fill="yellow" fill-rule="evenodd"/>
</svg>